# xmcd
#
# Track frame offsets: 
#        150
#        23048
#        41827
#        58313
#        74516
#        89211
#        103219
#        117091
#        134737
#        153214
#
# Disc length: 2263 seconds
#
# Revision: 0
# Processed by: cddbd v1.5.2PL0 Copyright (c) Steve Scherf et al.
# Submitted via: ExactAudioCopy v0.99pb5
#
DISCID=9708d50a
DTITLE=Marcus Bonfanti - Hard Times
DYEAR=2008
DGENRE=Blues
TTITLE0=Diamonds In The Rust
TTITLE1=Not Meant For This World
TTITLE2=Hard Times
TTITLE3=Now I'm Gone (Is Your Life Better?)
TTITLE4=Teach The Preacher
TTITLE5=Judgement Day
TTITLE6=Knock Me Down
TTITLE7=The Girl I Knew
TTITLE8=When You Come Home
TTITLE9=Waitin' For My Life
EXTD=
EXTT0=
EXTT1=
EXTT2=
EXTT3=
EXTT4=
EXTT5=
EXTT6=
EXTT7=
EXTT8=
EXTT9=
PLAYORDER=
